<svg width="1200" height="720" viewBox="0 0 1200 720" fill="none" xmlns="http://www.w3.org/2000/svg">
  <rect width="1200" height="720" fill="#132C2A"/>
  <path d="M0 548C154 488 292 502 443 550C614 604 746 612 910 544C1039 491 1134 472 1200 487V720H0V548Z" fill="#EADFCC"/>
  <path d="M0 0H1200V720H0V0Z" fill="url(#grain)" opacity=".38"/>
  <circle cx="744" cy="356" r="236" stroke="#D7C9A7" stroke-width="2"/>
  <circle cx="744" cy="356" r="158" stroke="#8FCBC2" stroke-width="1.4" stroke-dasharray="8 10"/>
  <circle cx="744" cy="356" r="76" stroke="#E7A089" stroke-width="1.4"/>
  <path d="M744 120V592M508 356H980M577 189L910 523M909 189L576 523" stroke="#D7C9A7" stroke-width="1" opacity=".72"/>
  <g fill="#FBFAF7">
    <circle cx="201" cy="112" r="2"/>
    <circle cx="274" cy="223" r="2"/>
    <circle cx="963" cy="118" r="2"/>
    <circle cx="1008" cy="276" r="2"/>
    <circle cx="848" cy="87" r="1.5"/>
    <circle cx="125" cy="284" r="1.5"/>
    <circle cx="371" cy="78" r="1.5"/>
    <circle cx="1065" cy="394" r="1.5"/>
  </g>
  <g font-family="Arial, Helvetica, sans-serif" fill="#FBFAF7">
    <text x="92" y="120" font-size="34" font-weight="700">十二星座公共运势</text>
    <text x="92" y="166" font-size="18" fill="#D7C9A7">公共星象解释 · 星座百科 · 娱乐性参考</text>
    <text x="92" y="220" font-size="16" fill="#8FCBC2">No birth data. No personal chart.</text>
  </g>
  <g font-family="Arial, Helvetica, sans-serif" font-size="18" fill="#D7C9A7" text-anchor="middle">
    <text x="744" y="174">白羊</text>
    <text x="861" y="207">金牛</text>
    <text x="942" y="290">双子</text>
    <text x="942" y="464">巨蟹</text>
    <text x="861" y="546">狮子</text>
    <text x="744" y="579">处女</text>
    <text x="627" y="546">天秤</text>
    <text x="546" y="464">天蝎</text>
    <text x="546" y="290">射手</text>
    <text x="627" y="207">摩羯</text>
  </g>
  <defs>
    <pattern id="grain" width="80" height="80" patternUnits="userSpaceOnUse">
      <circle cx="12" cy="19" r="1.2" fill="#FBFAF7"/>
      <circle cx="58" cy="43" r="1" fill="#D7C9A7"/>
      <circle cx="34" cy="68" r="1.2" fill="#8FCBC2"/>
    </pattern>
  </defs>
</svg>
